#!OML:ASF F:\VICON\USERDATA\INSTALL\Justin_Nancy\Justin_Nancy.ASF
:FULLY-SPECIFIED
:DEGREES
146
root -6.73772 16.6892 1.49686 -8.43912 56.1977 -20.2506
lowerback 8.7502 4.91172 9.08445
upperback -0.844432 7.7929 3.74036
thorax -5.12428 3.6669 -2.09262
lowerneck -17.4637 -2.03688 -8.16705
upperneck 22.0617 -0.96367 2.46547
head 9.97694 -0.784993 2.10806
rclavicle -5.45664e-014 2.26615e-014
rhumerus -34.2212 -3.79571 -73.7884
rradius 35.3213
rwrist 2.71542
rhand -21.4678 11.7401
rfingers 7.12502
rthumb 4.92266 -18.1827
lclavicle -5.45664e-014 2.26615e-014
lhumerus -42.9526 21.0581 68.1515
lradius 37.1238
lwrist 1.83921
lhand -20.2832 27.7018
lfingers 7.12502
lthumb 6.0664 57.595
rfemur 13.7071 -7.15718 21.9678
rtibia 12.8525
rfoot -8.83835 -9.86841
rtoes -30.8135
lfemur -41.619 5.11285 -27.1954
ltibia 19.1619
lfoot -16.0818 18.6411
ltoes -0.145818
147
root -6.59034 16.6554 1.6426 -7.79965 55.6373 -19.7725
lowerback 8.75466 5.28112 8.81944
upperback -0.960949 8.23444 3.36346
thorax -5.18597 3.87683 -2.39042
lowerneck -17.5737 -2.10033 -7.8929
upperneck 22.2016 -1.18233 2.70815
head 10.0569 -0.836341 2.12043
rclavicle 3.34952e-014 -1.66979e-014
rhumerus -33.838 -3.28082 -74.4588
rradius 35.1684
rwrist 2.26559
rhand -21.8348 11.1814
rfingers 7.12502
rthumb 4.56832 -18.7493
lclavicle 3.34952e-014 -1.66979e-014
lhumerus -43.6572 21.9411 66.3767
lradius 36.93
lwrist 2.40523
lhand -21.264 28.078
lfingers 7.12502
lthumb 5.11941 57.9962
rfemur 14.035 -7.29972 21.548
rtibia 13.1901
rfoot -8.8518 -8.98703
rtoes -31.7273
lfemur -41.7711 6.25779 -27.6398
ltibia 18.9546
lfoot -15.5452 17.6712
ltoes -1.33929
148
root -6.43092 16.6206 1.78214 -7.70748 55.0419 -20.0082
lowerback 8.72396 5.57899 9.10439
upperback -1.14386 8.6478 3.04997
thorax -5.23342 4.05786 -2.91033
lowerneck -17.4271 -2.03542 -7.62767
upperneck 22.0416 -1.26116 3.01214
head 9.97296 -0.813486 2.17156
rclavicle -6.79844e-014 -8.74653e-015
rhumerus -33.5558 -3.38316 -74.9809
rradius 34.9901
rwrist 2.3509
rhand -21.9982 10.6432
rfingers 7.12502
rthumb 4.4105 -19.2908
lclavicle -6.79844e-014 -8.74653e-015
lhumerus -44.453 22.7778 64.475
lradius 36.608
lwrist 2.0578
lhand -21.2867 28.4183
lfingers 7.12502
lthumb 5.09756 58.337
rfemur 14.9001 -7.55397 21.4835
rtibia 12.3669
rfoot -8.05065 -7.92851
rtoes -33.4969
lfemur -42.3533 7.13916 -27.5501
ltibia 19.8858
lfoot -15.0911 16.4288
ltoes -2.70633
149
root -6.26732 16.5978 1.92799 -7.93296 54.4755 -20.5969
lowerback 8.61275 5.84131 9.34249
upperback -1.32576 9.0176 2.95061
thorax -5.27433 4.22441 -3.16985
lowerneck -17.3257 -1.95853 -7.31699
upperneck 22.1285 -1.24161 2.9889
head 9.97982 -0.781322 2.11575
rclavicle -5.01931e-015 3.57812e-015
rhumerus -33.3687 -3.70573 -75.2319
rradius 34.797
rwrist 2.85016
rhand -22.089 10.7448
rfingers 7.12502
rthumb 4.32285 -19.191
lclavicle -5.01931e-015 3.57812e-015
lhumerus -45.4176 23.9432 62.5364
lradius 36.1735
lwrist 1.71533
lhand -21.5553 28.8773
lfingers 7.12502
lthumb 4.83815 58.802
rfemur 16.2962 -7.54176 21.7356
rtibia 10.546
rfoot -6.71434 -7.15787
rtoes -34.3946
lfemur -43.2635 8.27641 -27.5493
ltibia 21.6741
lfoot -14.3656 14.7282
ltoes -0.73746
150
root -6.10037 16.5961 2.08906 -7.76347 54.452 -20.3891
lowerback 8.61649 6.0032 8.88976
upperback -1.40741 9.18167 2.81995
thorax -5.38927 4.30845 -3.08734
lowerneck -17.4295 -1.99763 -7.24603
upperneck 22.3873 -1.29115 2.94221
head 10.0942 -0.804873 2.08407
rclavicle 6.23687e-014 -1.25234e-014
rhumerus -33.3027 -4.03876 -75.4451
rradius 34.8579
rwrist 3.05851
rhand -21.8756 10.7468
rfingers 7.12502
rthumb 4.52892 -19.1847
lclavicle 6.23687e-014 -1.25234e-014
lhumerus -46.1056 23.8405 61.0515
lradius 35.7317
lwrist 2.50701
lhand -21.4858 29.2653
lfingers 7.12502
lthumb 4.90526 59.1885
rfemur 18.0366 -6.70586 21.8483
rtibia 8.72571
rfoot -5.0077 -7.64943
rtoes -36.5033
lfemur -44.2502 11.4271 -29.7169
ltibia 23.6649
lfoot -12.3356 11.6609
ltoes 1.43941
151
root -5.92878 16.6129 2.2607 -7.33841 55.0888 -19.5453
lowerback 8.82129 6.01908 8.01445
upperback -1.40861 9.11188 2.59574
thorax -5.60382 4.28527 -2.87705
lowerneck -17.5582 -2.09239 -7.42053
upperneck 22.5289 -1.38547 3.04041
head 10.1776 -0.852207 2.13689
rclavicle 2.7482e-014 -9.93923e-016
rhumerus -33.3336 -4.86587 -75.4953
rradius 35.0226
rwrist 3.60776
rhand -21.6195 10.5194
rfingers 7.12502
rthumb 4.7762 -19.4068
lclavicle 2.7482e-014 -9.93923e-016
lhumerus -46.5356 23.5255 59.9059
lradius 35.1648
lwrist 3.02667
lhand -21.306 29.6867
lfingers 7.12502
lthumb 5.07886 59.6058
rfemur 19.8941 -6.47007 21.4393
rtibia 7.36284
rfoot -3.48773 -7.70995
rtoes -38.6709
lfemur -44.7051 13.7284 -31.9284
ltibia 25.5996
lfoot -10.1954 9.45535
ltoes 2.96323
152
root -5.75693 16.6282 2.35728 -5.94188 55.2508 -18.3096
lowerback 8.93874 6.18427 7.65847
upperback -1.65913 9.28011 2.06518
thorax -5.88312 4.34769 -3.28379
lowerneck -17.4656 -2.07433 -7.12603
upperneck 22.4696 -1.44792 3.02314
head 10.1384 -0.857011 2.0724
rclavicle -4.39066e-014 -2.40529e-014
rhumerus -33.3532 -6.22681 -75.5152
rradius 35.1181
rwrist 4.24732
rhand -20.3673 10.7036
rfingers 7.12502
rthumb 5.98525 -19.1918
lclavicle -4.39066e-014 -2.40529e-014
lhumerus -47.6203 26.5161 57.8887
lradius 34.4265
lwrist 0.10285
lhand -21.2339 29.8165
lfingers 7.12502
lthumb 5.14849 59.734
rfemur 20.1627 -5.61153 20.5808
rtibia 6.88451
rfoot -1.98994 -7.28621
rtoes -38.9702
lfemur -45.1099 11.97 -31.8021
ltibia 27.3433
lfoot -9.07656 11.0522
ltoes 8.38357
153
root -5.58469 16.6393 2.48491 -4.45807 55.8387 -16.6858
lowerback 8.92037 6.21163 6.69952
upperback -1.73572 9.18134 1.69298
thorax -6.04378 4.31495 -3.15285
lowerneck -17.5446 -2.07788 -7.10503
upperneck 22.647 -1.4318 2.958
head 10.216 -0.85583 2.05028
rclavicle 7.69297e-014 1.72943e-014
rhumerus -33.3097 -7.13474 -75.4741
rradius 35.1974
rwrist 4.31126
rhand -18.3423 11.4745
rfingers 7.12502
rthumb 7.93997 -18.3564
lclavicle 7.69297e-014 1.72943e-014
lhumerus -47.8612 25.6586 57.1072
lradius 33.7768
lwrist 1.97428
lhand -21.6386 30.3936
lfingers 7.12502
lthumb 4.75775 60.3202
rfemur 20.1298 -5.19162 19.47
rtibia 7.78924
rfoot -1.18811 -6.67384
rtoes -38.7089
lfemur -45.0303 10.0489 -31.7368
ltibia 28.8178
lfoot -8.95652 11.6682
ltoes 12.7477
154
root -5.4141 16.6388 2.63213 -3.62157 56.6189 -15.4856
lowerback 8.965 6.13539 5.86515
upperback -1.5829 8.96272 1.49956
thorax -6.01621 4.23595 -2.87995
lowerneck -17.905 -2.15875 -7.36224
upperneck 22.8151 -1.44652 2.97932
head 10.3498 -0.883105 2.10028
rclavicle -3.95085e-015 -1.68967e-014
rhumerus -33.1637 -7.48469 -75.5262
rradius 35.3463
rwrist 3.7568
rhand -17.8255 12.1601
rfingers 7.12502
rthumb 8.43879 -17.6513
lclavicle -3.95085e-015 -1.68967e-014
lhumerus -48.2756 27.5464 55.8579
lradius 32.6713
lwrist 1.04312
lhand -22.5063 30.55
lfingers 7.12502
lthumb 3.91985 60.4937
rfemur 19.8695 -5.02478 18.6436
rtibia 9.85655
rfoot -0.37563 -5.80791
rtoes -38.6686
lfemur -44.6523 9.19204 -32.0531
ltibia 29.9601
lfoot -8.78041 10.9868
ltoes 12.6178
155
root -5.23673 16.6408 2.77878 -3.10265 57.4158 -14.4838
lowerback 9.10907 6.18488 5.38728
upperback -1.40709 8.94593 1.14171
thorax -5.92318 4.24221 -2.99597
lowerneck -17.8387 -2.29869 -7.14342
upperneck 22.5227 -1.69568 2.89705
head 10.2425 -0.986581 1.99545
rclavicle 1.30552e-013 9.93923e-016
rhumerus -33.4547 -8.87902 -75.5621
rradius 35.6177
rwrist 3.61999
rhand -19.4059 12.3335
rfingers 7.12502
rthumb 6.91338 -17.5336
lclavicle 1.30552e-013 9.93923e-016
lhumerus -48.3706 30.0006 54.2769
lradius 31.1027
lwrist -1.63075
lhand -22.0868 30.6719
lfingers 7.12502
lthumb 4.32499 60.6078
rfemur 20.0671 -4.88542 17.9489
rtibia 11.1327
rfoot 1.53181 -4.89934
rtoes -37.7945
lfemur -44.2235 8.96279 -32.5998
ltibia 31.1224
lfoot -8.33581 9.92504
ltoes 11.9811
156
root -5.04308 16.6475 2.9106 -2.33491 58.215 -13.4272
lowerback 8.94626 6.29026 5.11035
upperback -1.25886 9.00811 0.759304
thorax -5.6469 4.28849 -3.21406
lowerneck -17.3709 -2.44428 -7.00703
upperneck 21.8088 -1.95942 2.81033
head 9.91056 -1.10354 1.8989
rclavicle -1.40417e-013 1.38155e-014
rhumerus -33.9462 -10.1161 -75.5915
rradius 35.9987
rwrist 2.86138
rhand -21.7157 11.7646
rfingers 7.12502
rthumb 4.68325 -18.1637
lclavicle -1.40417e-013 1.38155e-014
lhumerus -48.2579 31.8695 52.8632
lradius 29.4796
lwrist -3.65269
lhand -21.1478 31.2138
lfingers 7.12502
lthumb 5.2316 61.1292
rfemur 20.391 -4.31606 17.3424
rtibia 11.4571
rfoot 4.75424 -4.34721
rtoes -37.7821
lfemur -44.0768 8.73546 -33.2308
ltibia 32.5706
lfoot -8.07637 8.51805
ltoes 13.8229
157
root -4.83933 16.6592 3.0691 -2.83735 58.7124 -13.6611
lowerback 8.65132 6.32206 5.07397
upperback -0.970244 9.0227 0.89222
thorax -5.20177 4.32242 -2.99877
lowerneck -17.0619 -2.55731 -7.44737
upperneck 21.2831 -2.06166 2.97227
head 9.68031 -1.16618 2.01095
rclavicle -3.32219e-014 3.08116e-015
rhumerus -34.1531 -10.2475 -75.6723
rradius 36.1879
rwrist 1.6118
rhand -22.5373 10.9774
rfingers 7.12502
rthumb 3.8899 -18.9668
lclavicle -3.32219e-014 3.08116e-015
lhumerus -48.3542 33.539 51.892
lradius 27.8415
lwrist -5.08261
lhand -21.9137 31.1985
lfingers 7.12502
lthumb 4.4921 61.1308
rfemur 20.7966 -3.81841 17.5527
rtibia 11.9171
rfoot 8.43998 -3.27
rtoes -38.3864
lfemur -43.7645 9.41582 -33.2963
ltibia 33.9358
lfoot -7.66023 6.82722
ltoes 14.7193
158
root -4.61217 16.7171 3.20005 -3.99254 59.0245 -15.0857
lowerback 8.04371 6.3862 5.88467
upperback -0.889601 9.15657 1.05556
thorax -4.66943 4.39395 -3.18726
lowerneck -16.8655 -2.78841 -7.78265
upperneck 21.1724 -2.3537 3.17157
head 9.62968 -1.30567 2.09704
rclavicle 3.32467e-014 1.43125e-014
rhumerus -34.5348 -10.3371 -75.7654
rradius 36.287
rwrist 0.646778
rhand -22.4693 10.6613
rfingers 7.12502
rthumb 3.95564 -19.2818
lclavicle 3.32467e-014 1.43125e-014
lhumerus -48.1173 34.0231 51.8154
lradius 26.3614
lwrist -5.82248
lhand -22.6672 31.5748
lfingers 7.12502
lthumb 3.76449 61.5213
rfemur 20.2806 -3.49001 18.2581
rtibia 12.9835
rfoot 12.1855 -1.75402
rtoes -37.3941
lfemur -43.4283 9.34169 -31.9302
ltibia 35.1803
lfoot -8.36337 5.89736
ltoes 28.046
